<svg width="102" height="85" viewBox="0 0 102 85" fill="none" xmlns="http://www.w3.org/2000/svg">
<g clip-path="url(#clip0_4_130)">
<path d="M98.6672 23.8234C98.4024 23.447 98.026 23.1611 97.5925 23.0234C97.159 22.8857 96.697 22.9052 96.2709 23.08L76.6232 31.0264L62.88 1.48C62.6152 0.716107 61.8513 0.176107 61.0232 0.176107H40.6232C39.7951 0.176107 39.0312 0.716107 38.7664 1.48L25.0232 31.0264L5.37552 23.08C4.94943 22.9052 4.48743 22.8857 4.05393 23.0234C3.62043 23.1611 3.24402 23.447 2.97922 23.8234C2.71443 24.2 2.61523 24.662 2.69943 25.1064L15.3755 83.1064C15.5132 83.7441 16.0532 84.1761 16.6232 84.1761H85.0232C85.5932 84.1761 86.1332 83.7441 86.2709 83.1064L98.947 25.1064C99.0312 24.662 98.932 24.2 98.6672 23.8234Z" fill="#E3D5CA"/>
<path d="M40.623 0.176107H61.023L76.623 31.0264H25.023L40.623 0.176107Z" fill="#462F25"/>
<path d="M2.69945 25.1064L15.3755 83.1064C15.5132 83.7441 16.0532 84.1761 16.6232 84.1761H50.8232V2.02641L2.69945 25.1064Z" fill="#F0E5DC"/>
<path d="M49.6148 44.8232C49.4996 44.3792 49.1232 44.0261 48.6612 43.9319L38.4844 41.7319C38.0223 41.6377 37.5603 41.8025 37.2696 42.1556C36.9789 42.5087 36.9192 42.9861 37.1148 43.3913L43.4844 56.1287C43.68 56.5339 44.1108 56.7987 44.5728 56.7987C44.6012 56.7987 44.6296 56.7987 44.658 56.7987C45.1771 56.7345 45.5535 56.2905 45.5535 55.7713V45.1761L49.6148 44.8232Z" fill="#462F25"/>
<g>
<path d="M51.9922 56.7987C52.4542 56.7987 52.885 56.5339 53.0806 56.1287L59.4502 43.3913C59.6458 42.9861 59.5861 42.5087 59.2954 42.1556C59.0047 41.8025 58.5427 41.6377 58.0806 41.7319L47.9038 43.9319C47.4418 44.0261 47.0654 44.3792 46.9502 44.8232L42.8889 45.1761V55.7713C42.8889 56.2905 43.2653 56.7345 43.7844 56.7987C43.8128 56.7987 43.8412 56.7987 43.8696 56.7987C43.9277 56.7987 43.9277 56.7987 43.9858 56.7987H51.9922Z" fill="#260F08"/>
</g>
</g>
<defs>
<clipPath id="clip0_4_130">
<rect width="96.3542" height="84" fill="white" transform="translate(2.62305 0.176107)"/>
</clipPath>
</defs>
</svg> 